# xmcd
#
# Track frame offsets:
#	150
#	11479
#	35076
#	44844
#	78834
#	96951
#	130389
#	150594
#	176442
#
# Disc length: 3777 seconds
#
# Revision: 0
# Processed by: cddbd v1.5.2PL0 Copyright (c) Steve Scherf et al.
# Submitted via: EasyCDDAExtractor 15.3.0.1
#
DISCID=6e0ebf09
DTITLE=Saint Vitus - V
DYEAR=1989
DGENRE=Doom Metal
TTITLE0=Living Backwards
TTITLE1=I Bleed Black
TTITLE2=When Emotion Dies
TTITLE3=Patra (Petra)
TTITLE4=Ice Monkey
TTITLE5=Jack Frost
TTITLE6=Angry Man
TTITLE7=Mind-Food
TTITLE8=Data-track
EXTD=
EXTT0=
EXTT1=
EXTT2=
EXTT3=
EXTT4=
EXTT5=
EXTT6=
EXTT7=
EXTT8=
PLAYORDER=
